<svg width="146" height="24" viewBox="0 0 146 24" fill="none" xmlns="http://www.w3.org/2000/svg">
<path d="M8.6747 23.5952C7.0747 23.5952 5.61928 23.1807 4.30843 22.3518C2.99759 21.5229 1.94699 20.4241 1.15663 19.0554C0.385542 17.6675 0 16.1349 0 14.4578C0 12.7807 0.385542 11.2482 1.15663 9.86024C1.94699 8.47229 2.99759 7.37349 4.30843 6.56386C5.61928 5.73494 7.0747 5.32048 8.6747 5.32048C9.79277 5.32048 10.8145 5.52289 11.7398 5.92771C12.6651 6.31325 13.4554 6.85301 14.1108 7.54699V5.78313H18.4482V23.1325H14.1108V21.3687C13.4554 22.0627 12.6651 22.612 11.7398 23.0169C10.8145 23.4024 9.79277 23.5952 8.6747 23.5952ZM9.28193 19.1711C10.1301 19.1711 10.9012 18.959 11.5952 18.5349C12.2892 18.1108 12.8386 17.5422 13.2434 16.8289C13.6675 16.1157 13.8795 15.3253 13.8795 14.4578C13.8795 13.5904 13.6675 12.8 13.2434 12.0867C12.8386 11.3735 12.2892 10.8048 11.5952 10.3807C10.9012 9.95663 10.1301 9.74458 9.28193 9.74458C8.43374 9.74458 7.66265 9.95663 6.96868 10.3807C6.2747 10.8048 5.71566 11.3735 5.29157 12.0867C4.88675 12.8 4.68434 13.5904 4.68434 14.4578C4.68434 15.3253 4.88675 16.1157 5.29157 16.8289C5.71566 17.5422 6.2747 18.1108 6.96868 18.5349C7.66265 18.959 8.43374 19.1711 9.28193 19.1711Z" fill="black"/>
<path d="M22.256 23.1325V5.78313H26.7669V8.76145C27.3645 7.75904 28.1163 6.98795 29.0223 6.44819C29.9476 5.88916 31.0271 5.60964 32.2608 5.60964L33.3596 10.0627C32.9934 9.94699 32.5789 9.88916 32.1163 9.88916C30.6705 9.88916 29.5042 10.3614 28.6175 11.306C27.7307 12.2313 27.2873 13.5614 27.2873 15.2964V23.1325H22.256Z" fill="black"/>
<path d="M37.5768 23.1325V9.77349H34.3383V5.78313H37.6636V0H42.5214V5.78313H45.9623V9.77349H42.6081V23.1325H37.5768Z" fill="black"/>
<path d="M48.5648 23.1325L48.5648 0L53.5961 4.26568e-06V7.08434C54.213 6.46747 54.9166 6.00482 55.7069 5.69639C56.5166 5.36868 57.3744 5.20482 58.2804 5.20482C59.5142 5.20482 60.6611 5.50361 61.7214 6.1012C62.8009 6.67952 63.6684 7.53735 64.3238 8.6747C64.9985 9.79277 65.3359 11.1518 65.3359 12.7518V23.1325H60.3045V13.4169C60.3045 12.453 60.0154 11.5952 59.4371 10.8434C58.8587 10.0916 58.0298 9.71566 56.9503 9.71566C56.0828 9.71566 55.3021 10.0145 54.6081 10.612C53.9334 11.1904 53.5961 12.106 53.5961 13.359V23.1325H48.5648Z" fill="black"/>
<path d="M76.622 23.5952C75.022 23.5952 73.5666 23.1807 72.2557 22.3518C70.9449 21.5229 69.8943 20.4241 69.1039 19.0554C68.3328 17.6675 67.9473 16.1349 67.9473 14.4578C67.9473 12.7807 68.3328 11.2482 69.1039 9.86024C69.8943 8.47229 70.9449 7.37349 72.2557 6.56386C73.5666 5.73494 75.022 5.32048 76.622 5.32048C77.7401 5.32048 78.7617 5.52289 79.687 5.92771C80.6124 6.31325 81.4027 6.85301 82.0581 7.54699V5.78313H86.3955V23.1325H82.0581V21.3687C81.4027 22.0627 80.6124 22.612 79.687 23.0169C78.7617 23.4024 77.7401 23.5952 76.622 23.5952ZM77.2292 19.1711C78.0774 19.1711 78.8485 18.959 79.5425 18.5349C80.2365 18.1108 80.7859 17.5422 81.1907 16.8289C81.6148 16.1157 81.8268 15.3253 81.8268 14.4578C81.8268 13.5904 81.6148 12.8 81.1907 12.0867C80.7859 11.3735 80.2365 10.8048 79.5425 10.3807C78.8485 9.95663 78.0774 9.74458 77.2292 9.74458C76.381 9.74458 75.6099 9.95663 74.916 10.3807C74.222 10.8048 73.663 11.3735 73.2389 12.0867C72.834 12.8 72.6316 13.5904 72.6316 14.4578C72.6316 15.3253 72.834 16.1157 73.2389 16.8289C73.663 17.5422 74.222 18.1108 74.916 18.5349C75.6099 18.959 76.381 19.1711 77.2292 19.1711Z" fill="black"/>
<path d="M97.9816 24L88.4684 5.78313H94.0491L96.7672 11.3639C97.0178 11.8458 97.2491 12.3277 97.4612 12.8096C97.6732 13.2723 97.8852 13.8024 98.0973 14.4C98.3093 13.8024 98.5214 13.2723 98.7334 12.8096C98.9455 12.3277 99.1768 11.8458 99.4274 11.3639L102.145 5.78313H107.495L97.9816 24Z" fill="black"/>
<path d="M117.698 23.7108C115.751 23.7108 114.035 23.306 112.551 22.4964C111.066 21.6867 109.91 20.5783 109.081 19.1711C108.252 17.7446 107.837 16.1157 107.837 14.2843C107.837 12.5301 108.242 10.9783 109.052 9.62892C109.861 8.26024 110.951 7.18072 112.319 6.39036C113.707 5.6 115.24 5.20482 116.917 5.20482C118.633 5.20482 120.165 5.6 121.514 6.39036C122.864 7.16145 123.924 8.22169 124.695 9.57109C125.486 10.9205 125.881 12.453 125.881 14.1687V15.9325H115.298C114.816 15.9325 114.353 15.9036 113.91 15.8458C113.466 15.788 113.023 15.7205 112.58 15.6434C112.811 16.8 113.38 17.7446 114.286 18.4771C115.211 19.1904 116.387 19.547 117.813 19.547C118.912 19.547 119.895 19.3253 120.763 18.8819C121.649 18.4386 122.372 17.8892 122.931 17.2337L124.03 21.7446C123.163 22.4 122.18 22.8916 121.081 23.2193C120.001 23.547 118.874 23.7108 117.698 23.7108ZM112.464 12.6072C113.428 12.3952 114.372 12.2892 115.298 12.2892H118.363C118.902 12.2892 119.413 12.3084 119.895 12.347C120.377 12.3855 120.83 12.453 121.254 12.5494C120.965 11.5084 120.435 10.6892 119.664 10.0916C118.912 9.49398 117.977 9.19518 116.859 9.19518C115.799 9.19518 114.873 9.50362 114.083 10.1205C113.312 10.7181 112.772 11.547 112.464 12.6072Z" fill="black"/>
<path d="M128.67 23.1325V5.78313H133.181V7.69157C133.798 6.88193 134.559 6.26506 135.465 5.84097C136.371 5.41687 137.345 5.20482 138.386 5.20482C139.62 5.20482 140.767 5.50361 141.827 6.1012C142.906 6.67952 143.774 7.53735 144.429 8.6747C145.104 9.79277 145.441 11.1518 145.441 12.7518V23.1325H140.41V13.4169C140.41 12.453 140.121 11.5952 139.542 10.8434C138.964 10.0916 138.135 9.71566 137.056 9.71566C136.188 9.71566 135.408 10.0145 134.714 10.612C134.039 11.1904 133.702 12.106 133.702 13.359V23.1325H128.67Z" fill="black"/>
</svg>
