<svg width="24" height="24" viewBox="0 0 24 24" fill="none" xmlns="http://www.w3.org/2000/svg">
<path d="M20.5714 0H3.42857C1.53502 0 0 1.53502 0 3.42857V20.5714C0 22.465 1.53502 24 3.42857 24H20.5714C22.465 24 24 22.465 24 20.5714V3.42857C24 1.53502 22.465 0 20.5714 0Z" fill="black"/>
<path d="M5.06324 18C4.28745 18 3.58175 17.7892 2.94617 17.3677C2.31058 16.9461 1.80117 16.3873 1.41795 15.6912C1.04408 14.9853 0.857143 14.2059 0.857143 13.3529C0.857143 12.5 1.04408 11.7206 1.41795 11.0147C1.80117 10.3089 2.31058 9.75 2.94617 9.33823C3.58175 8.91669 4.28745 8.70591 5.06324 8.70591C5.60535 8.70591 6.10074 8.80886 6.54939 9.01474C6.99804 9.21077 7.38126 9.48531 7.69905 9.8382V8.9412H9.80211V17.7647H7.69905V16.8676C7.38126 17.2206 6.99804 17.5 6.54939 17.7059C6.10074 17.9019 5.60535 18 5.06324 18ZM5.35766 15.75C5.76892 15.75 6.1428 15.6422 6.47929 15.4265C6.81578 15.2108 7.08216 14.9216 7.27845 14.5588C7.48407 14.1961 7.58689 13.7941 7.58689 13.3529C7.58689 12.9117 7.48407 12.5098 7.27845 12.1471C7.08216 11.7843 6.81578 11.4951 6.47929 11.2794C6.1428 11.0637 5.76892 10.9559 5.35766 10.9559C4.9464 10.9559 4.57252 11.0637 4.23603 11.2794C3.89955 11.4951 3.62849 11.7843 3.42286 12.1471C3.22658 12.5098 3.12843 12.9117 3.12843 13.3529C3.12843 13.7941 3.22658 14.1961 3.42286 14.5588C3.62849 14.9216 3.89955 15.2108 4.23603 15.4265C4.57252 15.6422 4.9464 15.75 5.35766 15.75Z" fill="#F5F5F5"/>
<path d="M11.6484 17.7647V8.9412H13.8356V10.4559C14.1253 9.94611 14.4898 9.55389 14.9291 9.27943C15.3778 8.99511 15.9012 8.85291 16.4994 8.85291L17.0322 11.1177C16.8546 11.0589 16.6537 11.0294 16.4293 11.0294C15.7283 11.0294 15.1629 11.2696 14.7328 11.75C14.3029 12.2206 14.0879 12.8971 14.0879 13.7794V17.7647H11.6484Z" fill="#F5F5F5"/>
<path d="M19.077 17.7647V10.9706H17.5067V8.9412H19.119V6H21.4744V8.9412H23.1429V10.9706H21.5165V17.7647H19.077Z" fill="#F5F5F5"/>
</svg>
