<svg width="20" height="21" viewBox="0 0 20 21" fill="none" xmlns="http://www.w3.org/2000/svg">
<path fill-rule="evenodd" clip-rule="evenodd" d="M17.9416 18.3914L2.10828 2.55811L1.2244 3.44199L4.01429 6.23188C1.86423 8.14295 0.833008 10.5001 0.833008 10.5001C0.833008 10.5001 3.74967 17.1667 9.99967 17.1667C11.5149 17.1667 12.8343 16.7748 13.9636 16.1812L17.0578 19.2753L17.9416 18.3914ZM11.0168 13.2344L7.26528 9.48283C7.14742 9.79958 7.08301 10.1422 7.08301 10.5001C7.08301 12.1109 8.38884 13.4167 9.99967 13.4167C10.3574 13.4167 10.7002 13.3523 11.0168 13.2344Z" fill="black" fill-opacity="0.4"/>
<path d="M12.7606 11.4429C12.8616 11.1472 12.9163 10.83 12.9163 10.5001C12.9163 8.88925 11.6105 7.58338 9.99967 7.58338C9.66976 7.58338 9.35259 7.63816 9.05684 7.73914L6.10208 4.78441C7.21666 4.21008 8.51401 3.83338 9.99967 3.83338C16.2497 3.83338 19.1663 10.5001 19.1663 10.5001C19.1663 10.5001 18.1522 12.8182 16.0383 14.7206L12.7606 11.4429Z" fill="black" fill-opacity="0.4"/>
</svg>
