<svg width="20" height="21" viewBox="0 0 20 21" fill="none" xmlns="http://www.w3.org/2000/svg">
<path fill-rule="evenodd" clip-rule="evenodd" d="M8.44651 2.16669C4.702 2.16669 1.6665 5.20218 1.6665 8.94669C1.6665 12.6911 4.702 15.7267 8.44651 15.7267C10.0965 15.7267 11.6097 15.1365 12.785 14.1569L17.4615 18.8334L18.3332 17.9617L13.6567 13.2852C14.6363 12.1098 15.2265 10.5967 15.2265 8.94669C15.2265 5.20218 12.1909 2.16669 8.44651 2.16669ZM2.89922 8.94669C2.89922 5.88299 5.38281 3.39941 8.44651 3.39941C11.5101 3.39941 13.9937 5.88299 13.9937 8.94669C13.9937 10.4786 13.3735 11.8646 12.3689 12.8691C11.3644 13.8737 9.97845 14.4939 8.44651 14.4939C5.38281 14.4939 2.89922 12.0103 2.89922 8.94669Z" fill="black" fill-opacity="0.4"/>
</svg>
